<svg width="204" height="204" viewBox="0 0 204 204" fill="none" xmlns="http://www.w3.org/2000/svg">
<rect width="204" height="204" fill="white"/>
<path d="M54 144.84C77.7482 144.84 97 125.588 97 101.84C97 78.0919 77.7482 58.8401 54 58.8401C30.2518 58.8401 11 78.0919 11 101.84C11 125.588 30.2518 144.84 54 144.84Z" stroke="black" stroke-width="9"/>
<path d="M100 104.84L105 101.84L100 98.8401V104.84Z" fill="black" stroke="black" stroke-width="3" stroke-linejoin="round"/>
<path d="M98.5303 113.757L104.02 111.79L99.7009 107.872L98.5303 113.757Z" fill="black" stroke="black" stroke-width="3" stroke-linejoin="round"/>
<path d="M95.3506 122.215L101.118 121.357L97.6467 116.672L95.3506 122.215Z" fill="black" stroke="black" stroke-width="3" stroke-linejoin="round"/>
<path d="M90.5811 129.891L96.4052 130.174L93.9146 124.902L90.5811 129.891Z" fill="black" stroke="black" stroke-width="3" stroke-linejoin="round"/>
<path d="M84.4062 136.488L90.0632 137.902L88.6489 132.246L84.4062 136.488Z" fill="black" stroke="black" stroke-width="3" stroke-linejoin="round"/>
<path d="M77.0615 141.754L82.3337 144.245L82.0503 138.421L77.0615 141.754Z" fill="black" stroke="black" stroke-width="3" stroke-linejoin="round"/>
<path d="M68.832 145.486L73.5171 148.958L74.3753 143.19L68.832 145.486Z" fill="black" stroke="black" stroke-width="3" stroke-linejoin="round"/>
<path d="M60.0322 147.541L63.95 151.86L65.9169 146.371L60.0322 147.541Z" fill="black" stroke="black" stroke-width="3" stroke-linejoin="round"/>
<path d="M51 147.84L54 152.84L57 147.84H51Z" fill="black" stroke="black" stroke-width="3" stroke-linejoin="round"/>
<path d="M42.084 146.371L44.0509 151.86L47.9687 147.541L42.084 146.371Z" fill="black" stroke="black" stroke-width="3" stroke-linejoin="round"/>
<path d="M33.625 143.19L34.4832 148.958L39.1683 145.487L33.625 143.19Z" fill="black" stroke="black" stroke-width="3" stroke-linejoin="round"/>
<path d="M25.9495 138.421L25.666 144.245L30.9383 141.754L25.9495 138.421Z" fill="black" stroke="black" stroke-width="3" stroke-linejoin="round"/>
<path d="M19.3517 132.246L17.9375 137.902L23.5943 136.488L19.3517 132.246Z" fill="black" stroke="black" stroke-width="3" stroke-linejoin="round"/>
<path d="M14.0853 124.902L11.5947 130.174L17.4187 129.891L14.0853 124.902Z" fill="black" stroke="black" stroke-width="3" stroke-linejoin="round"/>
<path d="M10.3532 116.672L6.88184 121.357L12.6493 122.215L10.3532 116.672Z" fill="black" stroke="black" stroke-width="3" stroke-linejoin="round"/>
<path d="M8.29913 107.872L3.98047 111.79L9.46967 113.757L8.29913 107.872Z" fill="black" stroke="black" stroke-width="3" stroke-linejoin="round"/>
<path d="M8 98.8401L3 101.84L8 104.84V98.8401Z" fill="black" stroke="black" stroke-width="3" stroke-linejoin="round"/>
<path d="M9.46967 89.9236L3.98047 91.8905L8.29913 95.8083L9.46967 89.9236Z" fill="black" stroke="black" stroke-width="3" stroke-linejoin="round"/>
<path d="M12.6493 81.4648L6.88184 82.3231L10.3532 87.0081L12.6493 81.4648Z" fill="black" stroke="black" stroke-width="3" stroke-linejoin="round"/>
<path d="M17.4198 73.7894L11.5957 73.5059L14.0863 78.7782L17.4198 73.7894Z" fill="black" stroke="black" stroke-width="3" stroke-linejoin="round"/>
<path d="M23.5944 67.1918L17.9375 65.7776L19.3518 71.4344L23.5944 67.1918Z" fill="black" stroke="black" stroke-width="3" stroke-linejoin="round"/>
<path d="M30.9382 61.9258L25.666 59.4351L25.9494 65.2592L30.9382 61.9258Z" fill="black" stroke="black" stroke-width="3" stroke-linejoin="round"/>
<path d="M39.1683 58.1933L34.4832 54.7219L33.625 60.4894L39.1683 58.1933Z" fill="black" stroke="black" stroke-width="3" stroke-linejoin="round"/>
<path d="M47.9687 56.1385L44.0509 51.8198L42.084 57.309L47.9687 56.1385Z" fill="black" stroke="black" stroke-width="3" stroke-linejoin="round"/>
<path d="M57 55.8401L54 50.8401L51 55.8401H57Z" fill="black" stroke="black" stroke-width="3" stroke-linejoin="round"/>
<path d="M65.916 57.309L63.9492 51.8198L60.0312 56.1384L65.916 57.309Z" fill="black" stroke="black" stroke-width="3" stroke-linejoin="round"/>
<path d="M74.3753 60.4894L73.5171 54.7219L68.832 58.1933L74.3753 60.4894Z" fill="black" stroke="black" stroke-width="3" stroke-linejoin="round"/>
<path d="M82.0503 65.2591L82.3338 59.4351L77.0615 61.9257L82.0503 65.2591Z" fill="black" stroke="black" stroke-width="3" stroke-linejoin="round"/>
<path d="M88.6479 71.4344L90.0621 65.7776L84.4053 67.1918L88.6479 71.4344Z" fill="black" stroke="black" stroke-width="3" stroke-linejoin="round"/>
<path d="M93.9145 78.7782L96.4051 73.5059L90.5811 73.7894L93.9145 78.7782Z" fill="black" stroke="black" stroke-width="3" stroke-linejoin="round"/>
<path d="M97.6467 87.0081L101.118 82.3231L95.3506 81.4648L97.6467 87.0081Z" fill="black" stroke="black" stroke-width="3" stroke-linejoin="round"/>
<path d="M99.7019 95.8083L104.02 91.8905L98.5312 89.9236L99.7019 95.8083Z" fill="black" stroke="black" stroke-width="3" stroke-linejoin="round"/>
<path d="M47 59.8401L54 66.8401L61 59.8401H47Z" fill="black" stroke="black" stroke-width="6" stroke-linejoin="round"/>
<path d="M91.7813 82.2039L87.2871 91.0244L96.1076 95.5187L91.7813 82.2039Z" fill="black" stroke="black" stroke-width="6" stroke-linejoin="round"/>
<path d="M84.3496 131.704L74.572 130.156L73.0234 139.933L84.3496 131.704Z" fill="black" stroke="black" stroke-width="6" stroke-linejoin="round"/>
<path d="M34.9767 139.933L33.428 130.156L23.6504 131.704L34.9767 139.933Z" fill="black" stroke="black" stroke-width="6" stroke-linejoin="round"/>
<path d="M11.8926 95.5187L20.7131 91.0244L16.2188 82.2039L11.8926 95.5187Z" fill="black" stroke="black" stroke-width="6" stroke-linejoin="round"/>
<path fill-rule="evenodd" clip-rule="evenodd" d="M27.2598 127.3V115.82H30.7598V84.3204H27.2598V72.8403H59.3898C61.1286 72.8312 62.8656 72.9509 64.5868 73.1984C66.3568 73.463 67.9581 73.875 69.3908 74.4344C70.7499 74.9519 72.0263 75.6646 73.1798 76.5503C75.003 77.9967 76.345 79.9617 77.0288 82.1863C77.4628 83.5016 77.7418 84.9677 77.8658 86.5844C77.916 87.2519 77.9406 87.9209 77.9398 88.5903C77.9474 89.9307 77.8173 91.2684 77.5518 92.5823C77.2607 94.0258 76.7544 95.4174 76.0498 96.7104C74.7898 98.9971 72.9931 100.584 70.6598 101.47L70.7298 102.17C71.8038 102.32 72.8445 102.652 73.8068 103.152C75.5901 104.117 76.7188 105.682 77.1928 107.846C77.3709 108.696 77.457 109.562 77.4498 110.43V115.82H80.7398V127.3H58.5498V110.85C58.5498 109.03 58.2814 107.654 57.7448 106.72C57.2793 105.911 56.5419 105.294 55.6638 104.977C55.5196 104.922 55.3732 104.873 55.2248 104.83C54.8264 104.72 54.4217 104.634 54.0128 104.572C53.0214 104.418 51.8038 104.34 50.3598 104.34V115.82H54.9798V127.3H27.2598ZM50.3598 95.8003H54.1398C55.0858 95.8003 55.8661 95.6239 56.4808 95.2713C56.7419 95.1222 56.9792 94.9348 57.1848 94.7153C57.6841 94.1819 57.9991 93.426 58.1298 92.4474C58.178 92.0737 58.2014 91.6972 58.1998 91.3204V88.8003C58.202 88.3877 58.1736 87.9756 58.1148 87.5673C57.9761 86.6406 57.6661 85.92 57.1848 85.4054C56.8004 85.0023 56.3175 84.7064 55.7838 84.5473C55.3064 84.3959 54.7584 84.3204 54.1398 84.3204H50.3598V95.8003Z" fill="black" stroke="black" stroke-width="0.944882" stroke-linecap="round"/>
<path fill-rule="evenodd" clip-rule="evenodd" d="M82.3605 125.92V118H91.1605C91.1605 118.827 91.3472 119.427 91.7205 119.8C91.8625 119.938 92.03 120.046 92.2135 120.119C92.5275 120.25 92.9295 120.328 93.4195 120.352C93.5331 120.358 93.6468 120.36 93.7605 120.36C93.9638 120.361 94.167 120.352 94.3695 120.333C94.8855 120.284 95.2758 120.166 95.5405 119.98C95.6852 119.879 95.8066 119.749 95.8966 119.597C95.9867 119.446 96.0432 119.276 96.0625 119.101C96.0746 119.015 96.0806 118.927 96.0805 118.84C96.0814 118.649 96.0428 118.459 95.9673 118.283C95.8918 118.107 95.7809 117.948 95.6415 117.817C95.6153 117.791 95.5882 117.765 95.5605 117.74C95.4499 117.644 95.3318 117.557 95.2075 117.48C94.8562 117.257 94.3738 117.03 93.7605 116.8L90.3205 115.6C88.4412 114.889 86.8978 114.098 85.6905 113.226C85.0458 112.769 84.4582 112.237 83.9405 111.64C83.1934 110.747 82.6571 109.698 82.3715 108.569C82.1702 107.815 82.0508 106.994 82.0135 106.106C82.0047 105.898 82.0004 105.689 82.0005 105.48C81.9912 104.486 82.1115 103.496 82.3585 102.533C82.7803 100.858 83.7444 99.37 85.1005 98.3002C85.8812 97.7004 86.7542 97.2316 87.6855 96.9122C89.3548 96.3109 91.4505 95.9626 93.9725 95.8672C94.4616 95.849 94.951 95.84 95.4405 95.8402C96.9753 95.8359 98.5082 95.9466 100.027 96.1712C100.682 96.2697 101.334 96.3928 101.981 96.5402C102.695 96.7015 103.402 96.8971 104.099 97.1262C105.194 97.4909 106.135 97.9156 106.921 98.4002V105.56H98.9205C98.9268 105.261 98.8741 104.964 98.7655 104.685C98.4935 104.027 97.8638 103.658 96.8765 103.577C96.7315 103.566 96.586 103.56 96.4405 103.56C96.2547 103.56 96.0689 103.566 95.8835 103.579C95.5182 103.606 95.2195 103.661 94.9875 103.745C94.9017 103.775 94.819 103.814 94.7405 103.86C94.6306 103.926 94.5348 104.013 94.4586 104.116C94.3824 104.219 94.3273 104.337 94.2965 104.461C94.2638 104.579 94.2455 104.71 94.2415 104.853C94.2408 104.875 94.2405 104.898 94.2405 104.92C94.2405 105.373 94.4338 105.733 94.8205 106C94.9438 106.084 95.072 106.16 95.2045 106.228C95.4938 106.379 95.8578 106.534 96.2965 106.693C96.4372 106.744 96.5785 106.793 96.7205 106.84L100.201 108.04C102.137 108.698 103.713 109.49 104.93 110.417C105.462 110.817 105.948 111.274 106.381 111.78C107.205 112.772 107.777 113.949 108.048 115.21C108.235 116.061 108.327 116.929 108.321 117.8C108.331 118.857 108.201 119.91 107.935 120.933C107.469 122.749 106.399 124.353 104.901 125.48C102.621 127.213 99.2805 128.08 94.8805 128.08C93.1069 128.084 91.335 127.971 89.5765 127.739C88.9216 127.651 88.2693 127.545 87.6205 127.42C85.3405 126.98 83.5872 126.48 82.3605 125.92Z" fill="#F74C00" stroke="black" stroke-width="0.944882" stroke-linecap="round"/>
<mask id="mask0_8_474" style="mask-type:luminance" maskUnits="userSpaceOnUse" x="108" y="96" width="93" height="32">
<path d="M200.68 96.8401H108V127.96H200.68V96.8401Z" fill="white"/>
</mask>
<g mask="url(#mask0_8_474)">
<path fill-rule="evenodd" clip-rule="evenodd" d="M200.68 96.8401V103.4H198.68V121.4H200.68V127.96H185.56V121.4H187.48V107.4L180.68 127.96H174.76L167.76 107.6V121.4H169.68V127.96H156.56V121.4H158.56V103.4H156.56V96.8401H174.88L179.04 109.32L183.04 96.8401H200.68ZM125.12 103.4V96.8401H138.48V103.4H136.88L129.72 127.96H116.76L109.6 103.4H108V96.8401H123.36V103.4H121.28L124.04 116.8H124.44L127.2 103.4H125.12ZM154.96 127.96H139.76V121.4H141.76V103.4H139.76V96.8401H154.96V103.4H152.96V121.4H154.96V127.96Z" fill="black" stroke="black" stroke-width="0.944882" stroke-linecap="round"/>
</g>
</svg>
