<svg width="200" height="198" viewBox="0 0 200 198" fill="none" xmlns="http://www.w3.org/2000/svg">
<rect x="2" width="197.68" height="197.68" fill="white"/>
<path d="M53 141.84C76.7482 141.84 96 122.588 96 98.84C96 75.0918 76.7482 55.84 53 55.84C29.2518 55.84 10 75.0918 10 98.84C10 122.588 29.2518 141.84 53 141.84Z" stroke="black" stroke-width="9"/>
<path d="M99 101.84L104 98.84L99 95.84V101.84Z" fill="black" stroke="black" stroke-width="3" stroke-linejoin="round"/>
<path d="M97.5306 110.757L103.02 108.79L98.7012 104.872L97.5306 110.757Z" fill="black" stroke="black" stroke-width="3" stroke-linejoin="round"/>
<path d="M94.3504 119.215L100.118 118.357L96.6465 113.672L94.3504 119.215Z" fill="black" stroke="black" stroke-width="3" stroke-linejoin="round"/>
<path d="M89.5806 126.891L95.4047 127.174L92.9141 121.902L89.5806 126.891Z" fill="black" stroke="black" stroke-width="3" stroke-linejoin="round"/>
<path d="M83.4058 133.488L89.0627 134.902L87.6484 129.246L83.4058 133.488Z" fill="black" stroke="black" stroke-width="3" stroke-linejoin="round"/>
<path d="M76.062 138.754L81.3342 141.245L81.0508 135.421L76.062 138.754Z" fill="black" stroke="black" stroke-width="3" stroke-linejoin="round"/>
<path d="M67.8317 142.486L72.5168 145.958L73.375 140.19L67.8317 142.486Z" fill="black" stroke="black" stroke-width="3" stroke-linejoin="round"/>
<path d="M59.0318 144.541L62.9496 148.86L64.9165 143.371L59.0318 144.541Z" fill="black" stroke="black" stroke-width="3" stroke-linejoin="round"/>
<path d="M50 144.84L53 149.84L56 144.84H50Z" fill="black" stroke="black" stroke-width="3" stroke-linejoin="round"/>
<path d="M41.0836 143.371L43.0505 148.86L46.9683 144.541L41.0836 143.371Z" fill="black" stroke="black" stroke-width="3" stroke-linejoin="round"/>
<path d="M32.6247 140.19L33.4829 145.958L38.168 142.487L32.6247 140.19Z" fill="black" stroke="black" stroke-width="3" stroke-linejoin="round"/>
<path d="M24.9497 135.421L24.6662 141.245L29.9385 138.754L24.9497 135.421Z" fill="black" stroke="black" stroke-width="3" stroke-linejoin="round"/>
<path d="M18.3521 129.246L16.9379 134.902L22.5947 133.488L18.3521 129.246Z" fill="black" stroke="black" stroke-width="3" stroke-linejoin="round"/>
<path d="M13.0855 121.902L10.5949 127.174L16.4189 126.891L13.0855 121.902Z" fill="black" stroke="black" stroke-width="3" stroke-linejoin="round"/>
<path d="M9.35331 113.672L5.88197 118.357L11.6494 119.215L9.35331 113.672Z" fill="black" stroke="black" stroke-width="3" stroke-linejoin="round"/>
<path d="M7.2987 104.872L2.98004 108.79L8.46924 110.757L7.2987 104.872Z" fill="black" stroke="black" stroke-width="3" stroke-linejoin="round"/>
<path d="M7 95.84L2 98.84L7 101.84L7 95.84Z" fill="black" stroke="black" stroke-width="3" stroke-linejoin="round"/>
<path d="M8.46937 86.9235L2.98017 88.8904L7.29883 92.8082L8.46937 86.9235Z" fill="black" stroke="black" stroke-width="3" stroke-linejoin="round"/>
<path d="M11.6496 78.4649L5.88217 79.3232L9.35352 84.0082L11.6496 78.4649Z" fill="black" stroke="black" stroke-width="3" stroke-linejoin="round"/>
<path d="M16.4194 70.7894L10.5953 70.5059L13.0859 75.7782L16.4194 70.7894Z" fill="black" stroke="black" stroke-width="3" stroke-linejoin="round"/>
<path d="M22.5942 64.1918L16.9373 62.7776L18.3516 68.4344L22.5942 64.1918Z" fill="black" stroke="black" stroke-width="3" stroke-linejoin="round"/>
<path d="M29.938 58.9257L24.6658 56.435L24.9492 62.2591L29.938 58.9257Z" fill="black" stroke="black" stroke-width="3" stroke-linejoin="round"/>
<path d="M38.1683 55.1935L33.4832 51.7221L32.625 57.4896L38.1683 55.1935Z" fill="black" stroke="black" stroke-width="3" stroke-linejoin="round"/>
<path d="M46.9682 53.1386L43.0504 48.8199L41.0835 54.3091L46.9682 53.1386Z" fill="black" stroke="black" stroke-width="3" stroke-linejoin="round"/>
<path d="M56 52.84L53 47.84L50 52.84H56Z" fill="black" stroke="black" stroke-width="3" stroke-linejoin="round"/>
<path d="M64.9164 54.3092L62.9495 48.82L59.0317 53.1386L64.9164 54.3092Z" fill="black" stroke="black" stroke-width="3" stroke-linejoin="round"/>
<path d="M73.3753 57.4896L72.5171 51.7221L67.832 55.1935L73.3753 57.4896Z" fill="black" stroke="black" stroke-width="3" stroke-linejoin="round"/>
<path d="M81.0503 62.2591L81.3338 56.4351L76.0615 58.9257L81.0503 62.2591Z" fill="black" stroke="black" stroke-width="3" stroke-linejoin="round"/>
<path d="M87.6479 68.4344L89.0621 62.7776L83.4053 64.1918L87.6479 68.4344Z" fill="black" stroke="black" stroke-width="3" stroke-linejoin="round"/>
<path d="M92.9145 75.7782L95.4051 70.5059L89.5811 70.7894L92.9145 75.7782Z" fill="black" stroke="black" stroke-width="3" stroke-linejoin="round"/>
<path d="M96.6467 84.0082L100.118 79.3232L94.3506 78.4649L96.6467 84.0082Z" fill="black" stroke="black" stroke-width="3" stroke-linejoin="round"/>
<path d="M98.7013 92.8082L103.02 88.8904L97.5308 86.9235L98.7013 92.8082Z" fill="black" stroke="black" stroke-width="3" stroke-linejoin="round"/>
<path d="M46 56.84L53 63.84L60 56.84H46Z" fill="black" stroke="black" stroke-width="6" stroke-linejoin="round"/>
<path d="M90.7812 79.2039L86.287 88.0244L95.1075 92.5187L90.7812 79.2039Z" fill="black" stroke="black" stroke-width="6" stroke-linejoin="round"/>
<path d="M83.3501 128.704L73.5725 127.156L72.0239 136.933L83.3501 128.704Z" fill="black" stroke="black" stroke-width="6" stroke-linejoin="round"/>
<path d="M33.9766 136.933L32.4279 127.156L22.6503 128.704L33.9766 136.933Z" fill="black" stroke="black" stroke-width="6" stroke-linejoin="round"/>
<path d="M10.8926 92.5187L19.7131 88.0244L15.2188 79.2039L10.8926 92.5187Z" fill="black" stroke="black" stroke-width="6" stroke-linejoin="round"/>
<path fill-rule="evenodd" clip-rule="evenodd" d="M26.2598 124.3V112.82H29.7598V81.3205H26.2598V69.8405H58.3898C60.1286 69.8314 61.8656 69.951 63.5868 70.1985C65.3568 70.4631 66.9581 70.8751 68.3908 71.4345C69.7499 71.952 71.0263 72.6648 72.1798 73.5505C74.003 74.9969 75.345 76.9619 76.0288 79.1865C76.4628 80.5018 76.7418 81.9678 76.8658 83.5845C76.916 84.252 76.9406 84.9211 76.9398 85.5905C76.9473 86.9309 76.8173 88.2686 76.5518 89.5825C76.2607 91.026 75.7544 92.4175 75.0498 93.7105C73.7898 95.9972 71.9931 97.5838 69.6598 98.4705L69.7298 99.1705C70.8038 99.3203 71.8445 99.6524 72.8068 100.152C74.5901 101.117 75.7188 102.682 76.1928 104.846C76.3709 105.696 76.457 106.562 76.4498 107.43V112.82H79.7398V124.3H57.5498V107.85C57.5498 106.03 57.2814 104.654 56.7448 103.72C56.2793 102.911 55.5419 102.294 54.6638 101.977C54.5196 101.922 54.3732 101.873 54.2248 101.83C53.8264 101.72 53.4217 101.634 53.0128 101.572C52.0214 101.418 50.8038 101.34 49.3598 101.34V112.82H53.9798V124.3H26.2598ZM49.3598 92.8005H53.1398C54.0858 92.8005 54.8661 92.6241 55.4808 92.2715C55.7419 92.1224 55.9792 91.935 56.1848 91.7155C56.6841 91.1821 56.9991 90.4261 57.1298 89.4475C57.178 89.0738 57.2014 88.6973 57.1998 88.3205V85.8005C57.202 85.3879 57.1736 84.9758 57.1148 84.5675C56.9761 83.6408 56.6661 82.9201 56.1848 82.4055C55.8004 82.0024 55.3175 81.7066 54.7838 81.5475C54.3064 81.3961 53.7584 81.3205 53.1398 81.3205H49.3598V92.8005Z" fill="black" stroke="black" stroke-width="0.944882" stroke-linecap="round"/>
<path fill-rule="evenodd" clip-rule="evenodd" d="M81.3605 122.92V115H90.1605C90.1605 115.827 90.3472 116.427 90.7205 116.8C90.8625 116.938 91.03 117.046 91.2135 117.119C91.5275 117.25 91.9295 117.328 92.4195 117.352C92.5331 117.358 92.6468 117.36 92.7605 117.36C92.9638 117.361 93.167 117.352 93.3695 117.333C93.8855 117.284 94.2758 117.166 94.5405 116.98C94.6852 116.879 94.8066 116.749 94.8966 116.597C94.9867 116.446 95.0432 116.276 95.0625 116.101C95.0746 116.015 95.0806 115.927 95.0805 115.84C95.0814 115.649 95.0428 115.459 94.9673 115.283C94.8918 115.107 94.7809 114.948 94.6415 114.817C94.6153 114.791 94.5882 114.765 94.5605 114.74C94.4499 114.644 94.3318 114.557 94.2075 114.48C93.8562 114.257 93.3738 114.03 92.7605 113.8L89.3205 112.6C87.4412 111.889 85.8978 111.098 84.6905 110.226C84.0458 109.769 83.4582 109.237 82.9405 108.64C82.1934 107.747 81.6571 106.698 81.3715 105.569C81.1702 104.815 81.0508 103.994 81.0135 103.106C81.0047 102.898 81.0004 102.689 81.0005 102.48C80.9912 101.486 81.1115 100.496 81.3585 99.5331C81.7803 97.8582 82.7444 96.3699 84.1005 95.3001C84.8812 94.7003 85.7542 94.2315 86.6855 93.9121C88.3548 93.3108 90.4505 92.9625 92.9725 92.8671C93.4616 92.8489 93.951 92.8399 94.4405 92.8401C95.9753 92.8358 97.5082 92.9465 99.0265 93.1711C99.6822 93.2696 100.334 93.3927 100.981 93.5401C101.695 93.7014 102.402 93.897 103.099 94.1261C104.194 94.4908 105.135 94.9155 105.921 95.4001V102.56H97.9205C97.9268 102.261 97.8741 101.964 97.7655 101.685C97.4935 101.027 96.8638 100.658 95.8765 100.577C95.7315 100.566 95.586 100.56 95.4405 100.56C95.2547 100.56 95.0689 100.566 94.8835 100.579C94.5182 100.606 94.2195 100.661 93.9875 100.745C93.9017 100.775 93.819 100.814 93.7405 100.86C93.6306 100.926 93.5348 101.013 93.4586 101.116C93.3824 101.219 93.3273 101.337 93.2965 101.461C93.2638 101.579 93.2455 101.71 93.2415 101.853C93.2408 101.875 93.2405 101.898 93.2405 101.92C93.2405 102.373 93.4338 102.733 93.8205 103C93.9438 103.084 94.072 103.16 94.2045 103.228C94.4938 103.379 94.8578 103.534 95.2965 103.693C95.4372 103.744 95.5785 103.793 95.7205 103.84L99.2005 105.04C101.137 105.698 102.713 106.49 103.93 107.417C104.462 107.817 104.948 108.274 105.381 108.78C106.205 109.772 106.777 110.949 107.048 112.21C107.235 113.061 107.327 113.929 107.321 114.8C107.331 115.857 107.201 116.91 106.935 117.933C106.469 119.749 105.399 121.353 103.901 122.48C101.621 124.213 98.2805 125.08 93.8805 125.08C92.1069 125.084 90.335 124.971 88.5765 124.739C87.9216 124.651 87.2693 124.545 86.6205 124.42C84.3405 123.98 82.5872 123.48 81.3605 122.92Z" fill="#F74C00" stroke="black" stroke-width="0.944882" stroke-linecap="round"/>
<g clip-path="url(#clip0_6_4)">
<path fill-rule="evenodd" clip-rule="evenodd" d="M199.68 93.84V100.4H197.68V118.4H199.68V124.96H184.56V118.4H186.48V104.4L179.68 124.96H173.76L166.76 104.6V118.4H168.68V124.96H155.56V118.4H157.56V100.4H155.56V93.84H173.88L178.04 106.32L182.04 93.84H199.68ZM124.12 100.4V93.84H137.48V100.4H135.88L128.72 124.96H115.76L108.6 100.4H107V93.84H122.36V100.4H120.28L123.04 113.8H123.44L126.2 100.4H124.12ZM153.96 124.96H138.76V118.4H140.76V100.4H138.76V93.84H153.96V100.4H151.96V118.4H153.96V124.96Z" fill="black" stroke="black" stroke-width="0.944882" stroke-linecap="round"/>
</g>
<defs>
<clipPath id="clip0_6_4">
<rect width="92.68" height="31.12" fill="white" transform="translate(107 93.84)"/>
</clipPath>
</defs>
</svg>
