<?xml version="1.0"?>
<svg width="242" height="144" xmlns="http://www.w3.org/2000/svg" xmlns:svg="http://www.w3.org/2000/svg" xmlns:xlink="http://www.w3.org/1999/xlink">
 <g class="layer">
  <title>Layer 1</title>
  <path d="m71.05,23.68c-26.06,0 -47.27,21.22 -47.27,47.27s21.22,47.27 47.27,47.27s47.27,-21.22 47.27,-47.27s-21.22,-47.27 -47.27,-47.27zm-0.07,4.2a3.1,3.11 0 0 1 3.02,3.11a3.11,3.11 0 0 1 -6.22,0a3.11,3.11 0 0 1 3.2,-3.11zm7.12,5.12a38.27,38.27 0 0 1 26.2,18.66l-3.67,8.28c-0.63,1.43 0.02,3.11 1.44,3.75l7.06,3.13a38.27,38.27 0 0 1 0.08,6.64l-3.93,0c-0.39,0 -0.55,0.26 -0.55,0.64l0,1.8c0,4.24 -2.39,5.17 -4.49,5.4c-2,0.23 -4.21,-0.84 -4.49,-2.06c-1.18,-6.63 -3.14,-8.04 -6.24,-10.49c3.85,-2.44 7.85,-6.05 7.85,-10.87c0,-5.21 -3.57,-8.49 -6,-10.1c-3.42,-2.25 -7.2,-2.7 -8.22,-2.7l-40.6,0a38.27,38.27 0 0 1 21.41,-12.08l4.79,5.02c1.08,1.13 2.87,1.18 4,0.09l5.36,-5.11zm-44.2,23.02a3.11,3.11 0 0 1 3.02,3.11a3.11,3.11 0 0 1 -6.22,0a3.11,3.11 0 0 1 3.2,-3.11zm74.15,0.14a3.11,3.11 0 0 1 3.02,3.11a3.11,3.11 0 0 1 -6.22,0a3.11,3.11 0 0 1 3.2,-3.11zm-68.29,0.5l5.42,0l0,24.44l-10.94,0a38.27,38.27 0 0 1 -1.24,-14.61l6.7,-2.98c1.43,-0.64 2.08,-2.31 1.44,-3.74l-1.38,-3.11zm22.62,0.26l12.91,0c0.67,0 4.71,0.77 4.71,3.8c0,2.51 -3.1,3.41 -5.65,3.41l-11.98,0l0.01,-7.21zm0,17.56l9.89,0c0.9,0 4.83,0.26 6.08,5.28c0.39,1.54 1.26,6.56 1.85,8.17c0.59,1.8 2.98,5.4 5.53,5.4l16.14,0a38.27,38.27 0 0 1 -3.54,4.1l-6.57,-1.41c-1.53,-0.33 -3.04,0.65 -3.37,2.18l-1.56,7.28a38.27,38.27 0 0 1 -31.91,-0.15l-1.56,-7.28c-0.33,-1.53 -1.83,-2.51 -3.36,-2.18l-6.43,1.38a38.27,38.27 0 0 1 -3.32,-3.92l31.27,0c0.35,0 0.59,-0.06 0.59,-0.39l0,-11.06c0,-0.32 -0.24,-0.39 -0.59,-0.39l-9.15,0l0.01,-7.01zm-14.43,25.33a3.11,3.11 0 0 1 3.02,3.11a3.11,3.11 0 0 1 -6.22,0a3.11,3.11 0 0 1 3.2,-3.11zm46.05,0.14a3.11,3.11 0 0 1 3.02,3.11a3.11,3.11 0 0 1 -6.22,0a3.11,3.11 0 0 1 3.2,-3.11z" id="svg_1"/>
  <path d="m115.68,70.95a44.63,44.63 0 0 1 -44.63,44.63a44.63,44.63 0 0 1 -44.63,-44.63a44.63,44.63 0 0 1 44.63,-44.63a44.63,44.63 0 0 1 44.63,44.63zm-0.84,-4.31l6.96,4.31l-6.96,4.31l5.98,5.59l-7.66,2.87l4.78,6.65l-8.09,1.32l3.4,7.46l-8.19,-0.29l1.88,7.98l-7.98,-1.88l0.29,8.19l-7.46,-3.4l-1.32,8.09l-6.65,-4.78l-2.87,7.66l-5.59,-5.98l-4.31,6.96l-4.31,-6.96l-5.59,5.98l-2.87,-7.66l-6.65,4.78l-1.32,-8.09l-7.46,3.4l0.29,-8.19l-7.98,1.88l1.88,-7.98l-8.19,0.29l3.4,-7.46l-8.09,-1.32l4.78,-6.65l-7.66,-2.87l5.98,-5.59l-6.96,-4.31l6.96,-4.31l-5.98,-5.59l7.66,-2.87l-4.78,-6.65l8.09,-1.32l-3.4,-7.46l8.19,0.29l-1.88,-7.98l7.98,1.88l-0.29,-8.19l7.46,3.4l1.32,-8.09l6.65,4.78l2.87,-7.66l5.59,5.98l4.31,-6.96l4.31,6.96l5.59,-5.98l2.87,7.66l6.65,-4.78l1.32,8.09l7.46,-3.4l-0.29,8.19l7.98,-1.88l-1.88,7.98l8.19,-0.29l-3.4,7.46l8.09,1.32l-4.78,6.65l7.66,2.87l-5.98,5.59z" fill-rule="evenodd" id="svg_2" stroke="#000" stroke-linecap="round" stroke-linejoin="round" stroke-width="3"/>
  <use id="svg_42" x="88.43" xlink:href="#svg_41" y="35.04"/>
 </g>
 <defs>
  <symbol height="87" id="svg_41" width="174" xmlns="http://www.w3.org/2000/svg" xmlns:lucid="lucid" xmlns:xlink="http://www.w3.org/1999/xlink">
   <g id="svg_3" transform="translate(-494 -407)">
    <path d="m460,351.24a6,6 0 0 1 6,-6l228,0a6,6 0 0 1 6,6l0,51.34a6,6 0 0 1 -6,6l-228,0a6,6 0 0 1 -6,-6l0,-51.34z" fill="#fff" fill-opacity="0" id="svg_5" stroke="#000" stroke-opacity="0" stroke-width="2"/>
    <use id="svg_6" transform="matrix(1,0,0,1,465,350.2444444444444) translate(58.511111111111106 42.041666666666664)" xlink:href="#svg_36"/>
    <path d="m460,426a6,6 0 0 1 6,-6l228,0a6,6 0 0 1 6,6l0,51.33a6,6 0 0 1 -6,6l-228,0a6,6 0 0 1 -6,-6l0,-51.33z" fill="#fff" fill-opacity="0" id="svg_7" stroke="#000" stroke-opacity="0" stroke-width="2"/>
    <use id="svg_8" transform="matrix(1,0,0,1,465,425) translate(64.38151041666667 38.921875)" xlink:href="#svg_31"/>
    <defs>
     <path d="m31,8c-2,-22 -2,-202 -2,-254c68,-15 137,-18 157,-15c18,68 59,104 91,104c29,0 55,-16 55,-46c0,-57 -64,-76 -124,-108c-89,-48 -175,-98 -175,-241c0,-99 82,-180 216,-180c58,0 94,22 111,40l7,-48s104,-4 153,17c5,2 -12,195 -12,227c0,15 -156,14 -156,10c-5,-58 -39,-80 -70,-80c-18,0 -55,9 -55,49c0,36 75,58 149,102c89,52 164,105 164,228c0,113 -98,198 -198,198c-103,0 -140,-39 -155,-56c-2,22 -4,62 -5,62c-5,-2 -151,-9 -151,-9" fill="#000" id="svg_40"/>
     <path d="m288,0c-5,-3 -195,-536 -195,-536s-53,-8 -61,-8s-2,-157 0,-157c0,0 306,2 310,3s14,157 14,157s-48,7 -54,7s76,228 76,228s83,-233 80,-233s-48,2 -51,2s-15,-159 -13,-162s310,-2 311,1s0,161 -1,164s-63,3 -67,3s-174,526 -181,531s-163,3 -168,0" fill="#000" id="svg_39"/>
     <path d="m51,-7c-11,-16 -6,-124 -2,-128s72,-3 72,-3l-14,-414s-58,2 -63,-3s4,-146 4,-146l329,-5l7,142l-90,17l13,404c5,0 87,0 87,7s7,132 2,134s-334,11 -345,-5" fill="#000" id="svg_38"/>
     <path d="m38,-3s-13,-140 -5,-144s70,-1 70,-4s-2,-378 -3,-385s-51,1 -61,-5s-13,-158 -8,-164s232,-4 237,-1s108,171 113,180c5,-9 120,-174 126,-179s247,-2 247,0s2,145 2,153s-72,10 -73,10s-1,388 3,395s77,2 77,9s11,147 8,146s-336,3 -336,-10s-3,-136 2,-137s67,0 67,-3l2,-279s-70,105 -72,105s-89,10 -92,7s-72,-112 -73,-112s7,263 7,269s71,8 71,11s9,143 6,143s-315,-5 -315,-5" fill="#000" id="svg_37"/>
     <g id="svg_36">
      <use id="svg_9" transform="matrix(0.044444444444444446,0,0,0.044444444444444446,0,0)" xlink:href="#svg_40"/>
      <use id="svg_10" transform="matrix(0.044444444444444446,0,0,0.044444444444444446,25.2,0)" xlink:href="#svg_39"/>
      <use id="svg_11" transform="matrix(0.044444444444444446,0,0,0.044444444444444446,57.955555555555556,0)" xlink:href="#svg_38"/>
      <use id="svg_12" transform="matrix(0.044444444444444446,0,0,0.044444444444444446,77.46666666666667,0)" xlink:href="#svg_37"/>
     </g>
     <path d="m120,-121c-43,-151 -18,-269 76,-352c171,101 296,163 373,186c144,-1 227,-37 237,-108c8,-56 -37,-118 -132,-164l-257,-125c-161,-85 -250,-206 -250,-361c0,-172 146,-339 281,-381c70,-21 152,-31 248,-25c176,11 330,61 463,150c5,126 -34,236 -118,329c-162,-121 -292,-178 -389,-170c-91,-11 -140,22 -145,98c-3,43 58,106 193,168c148,68 263,132 336,211s106,176 98,289c-11,153 -84,268 -214,353c-86,56 -206,88 -364,73c-152,-14 -297,-76 -436,-171" fill="#000" id="svg_35"/>
     <path d="m1329,-1453l-570,1469c-119,54 -233,55 -341,3l-363,-1472c124,-21 249,-21 375,0l191,1052l326,-1052c123,-20 251,-20 382,0" fill="#000" id="svg_34"/>
     <path d="m55,18c94,49 209,54 345,15l118,-1471c-117,-34 -227,-39 -328,-15" fill="#000" id="svg_33"/>
     <path d="m156,-1444l-101,1484l323,3l53,-719l164,674c39,44 84,53 135,28l306,-696l-41,710l325,-3l91,-1483c-89,-23 -182,-23 -278,2l-411,842l-233,-840c-139,-38 -250,-39 -333,-2" fill="#000" id="svg_32"/>
     <g id="svg_31">
      <use id="svg_13" transform="matrix(0.021701388888888888,0,0,0.021701388888888888,0,0)" xlink:href="#svg_35"/>
      <use id="svg_14" transform="matrix(0.021701388888888888,0,0,0.021701388888888888,26.627604166666664,0)" xlink:href="#svg_34"/>
      <use id="svg_15" transform="matrix(0.021701388888888888,0,0,0.021701388888888888,56.77083333333333,0)" xlink:href="#svg_33"/>
      <use id="svg_16" transform="matrix(0.021701388888888888,0,0,0.021701388888888888,69.3142361111111,0)" xlink:href="#svg_32"/>
     </g>
    </defs>
   </g>
  </symbol>
 </defs>
</svg>
