<svg width="204" height="106" viewBox="0 0 204 106" fill="none" xmlns="http://www.w3.org/2000/svg">
<path d="M54 96C77.7482 96 97 76.7482 97 53C97 29.2518 77.7482 10 54 10C30.2518 10 11 29.2518 11 53C11 76.7482 30.2518 96 54 96Z" stroke="black" stroke-width="9"/>
<path d="M100 56L105 53L100 50V56Z" fill="black" stroke="black" stroke-width="3" stroke-linejoin="round"/>
<path d="M98.5312 64.9165L104.02 62.9496L99.7018 59.0318L98.5312 64.9165Z" fill="black" stroke="black" stroke-width="3" stroke-linejoin="round"/>
<path d="M95.3506 73.3751L101.118 72.5168L97.6467 67.8318L95.3506 73.3751Z" fill="black" stroke="black" stroke-width="3" stroke-linejoin="round"/>
<path d="M90.5811 81.0506L96.4051 81.3341L93.9145 76.0618L90.5811 81.0506Z" fill="black" stroke="black" stroke-width="3" stroke-linejoin="round"/>
<path d="M84.4053 87.6482L90.0621 89.0624L88.6479 83.4056L84.4053 87.6482Z" fill="black" stroke="black" stroke-width="3" stroke-linejoin="round"/>
<path d="M77.0615 92.9143L82.3338 95.4049L82.0503 89.5809L77.0615 92.9143Z" fill="black" stroke="black" stroke-width="3" stroke-linejoin="round"/>
<path d="M68.832 96.6465L73.5171 100.118L74.3753 94.3504L68.832 96.6465Z" fill="black" stroke="black" stroke-width="3" stroke-linejoin="round"/>
<path d="M60.0322 98.7014L63.95 103.02L65.9169 97.5309L60.0322 98.7014Z" fill="black" stroke="black" stroke-width="3" stroke-linejoin="round"/>
<path d="M51 99L54 104L57 99H51Z" fill="black" stroke="black" stroke-width="3" stroke-linejoin="round"/>
<path d="M42.084 97.5308L44.0509 103.02L47.9687 98.7014L42.084 97.5308Z" fill="black" stroke="black" stroke-width="3" stroke-linejoin="round"/>
<path d="M33.625 94.3504L34.4833 100.118L39.1683 96.6465L33.625 94.3504Z" fill="black" stroke="black" stroke-width="3" stroke-linejoin="round"/>
<path d="M25.9494 89.5809L25.666 95.4049L30.9382 92.9143L25.9494 89.5809Z" fill="black" stroke="black" stroke-width="3" stroke-linejoin="round"/>
<path d="M19.3517 83.4056L17.9375 89.0624L23.5944 87.6482L19.3517 83.4056Z" fill="black" stroke="black" stroke-width="3" stroke-linejoin="round"/>
<path d="M14.0854 76.0618L11.5947 81.3341L17.4188 81.0507L14.0854 76.0618Z" fill="black" stroke="black" stroke-width="3" stroke-linejoin="round"/>
<path d="M10.3532 67.8318L6.88184 72.5168L12.6493 73.3751L10.3532 67.8318Z" fill="black" stroke="black" stroke-width="3" stroke-linejoin="round"/>
<path d="M8.29913 59.0318L3.98047 62.9496L9.46967 64.9165L8.29913 59.0318Z" fill="black" stroke="black" stroke-width="3" stroke-linejoin="round"/>
<path d="M8 50L3 53L8 56V50Z" fill="black" stroke="black" stroke-width="3" stroke-linejoin="round"/>
<path d="M9.46869 41.0835L3.97949 43.0504L8.29814 46.9682L9.46869 41.0835Z" fill="black" stroke="black" stroke-width="3" stroke-linejoin="round"/>
<path d="M12.6493 32.6249L6.88184 33.4832L10.3532 38.1682L12.6493 32.6249Z" fill="black" stroke="black" stroke-width="3" stroke-linejoin="round"/>
<path d="M17.4187 24.9494L11.5947 24.6659L14.0853 29.9382L17.4187 24.9494Z" fill="black" stroke="black" stroke-width="3" stroke-linejoin="round"/>
<path d="M23.5943 18.3518L17.9375 16.9376L19.3517 22.5944L23.5943 18.3518Z" fill="black" stroke="black" stroke-width="3" stroke-linejoin="round"/>
<path d="M30.9383 13.0857L25.666 10.595L25.9495 16.4191L30.9383 13.0857Z" fill="black" stroke="black" stroke-width="3" stroke-linejoin="round"/>
<path d="M39.1683 9.35349L34.4832 5.88214L33.625 11.6496L39.1683 9.35349Z" fill="black" stroke="black" stroke-width="3" stroke-linejoin="round"/>
<path d="M47.9687 7.2986L44.0509 2.97995L42.084 8.46915L47.9687 7.2986Z" fill="black" stroke="black" stroke-width="3" stroke-linejoin="round"/>
<path d="M57 7L54 2L51 7H57Z" fill="black" stroke="black" stroke-width="3" stroke-linejoin="round"/>
<path d="M65.9159 8.46915L63.9491 2.97995L60.0312 7.2986L65.9159 8.46915Z" fill="black" stroke="black" stroke-width="3" stroke-linejoin="round"/>
<path d="M74.3753 11.6496L73.517 5.88214L68.832 9.35349L74.3753 11.6496Z" fill="black" stroke="black" stroke-width="3" stroke-linejoin="round"/>
<path d="M82.0503 16.4191L82.3337 10.5951L77.0615 13.0857L82.0503 16.4191Z" fill="black" stroke="black" stroke-width="3" stroke-linejoin="round"/>
<path d="M88.648 22.5944L90.0622 16.9376L84.4053 18.3518L88.648 22.5944Z" fill="black" stroke="black" stroke-width="3" stroke-linejoin="round"/>
<path d="M93.9145 29.9382L96.4052 24.6659L90.5811 24.9494L93.9145 29.9382Z" fill="black" stroke="black" stroke-width="3" stroke-linejoin="round"/>
<path d="M97.6467 38.1682L101.118 33.4832L95.3506 32.6249L97.6467 38.1682Z" fill="black" stroke="black" stroke-width="3" stroke-linejoin="round"/>
<path d="M99.7018 46.9682L104.02 43.0504L98.5312 41.0835L99.7018 46.9682Z" fill="black" stroke="black" stroke-width="3" stroke-linejoin="round"/>
<path d="M47 11L54 18L61 11H47Z" fill="black" stroke="black" stroke-width="6" stroke-linejoin="round"/>
<path d="M91.7813 33.3639L87.2871 42.1844L96.1076 46.6787L91.7813 33.3639Z" fill="black" stroke="black" stroke-width="6" stroke-linejoin="round"/>
<path d="M84.3496 82.8642L74.572 81.3156L73.0234 91.0932L84.3496 82.8642Z" fill="black" stroke="black" stroke-width="6" stroke-linejoin="round"/>
<path d="M34.9766 91.0932L33.428 81.3156L23.6504 82.8642L34.9766 91.0932Z" fill="black" stroke="black" stroke-width="6" stroke-linejoin="round"/>
<path d="M11.8926 46.6787L20.7131 42.1844L16.2188 33.3639L11.8926 46.6787Z" fill="black" stroke="black" stroke-width="6" stroke-linejoin="round"/>
<path fill-rule="evenodd" clip-rule="evenodd" d="M27.2598 78.4605V66.9805H30.7598V35.4805H27.2598V24.0005H59.3898C61.1286 23.9914 62.8657 24.111 64.5868 24.3585C66.3568 24.6232 67.9581 25.0352 69.3908 25.5945C70.7499 26.112 72.0263 26.8248 73.1798 27.7105C75.003 29.1569 76.345 31.1219 77.0288 33.3465C77.4628 34.6618 77.7418 36.1278 77.8658 37.7445C77.916 38.412 77.9407 39.0811 77.9398 39.7505C77.9474 41.0909 77.8174 42.4286 77.5518 43.7425C77.2608 45.186 76.7544 46.5775 76.0498 47.8705C74.7898 50.1572 72.9931 51.7438 70.6598 52.6305L70.7298 53.3305C71.8039 53.4803 72.8445 53.8124 73.8068 54.3125C75.5901 55.2772 76.7188 56.8418 77.1928 59.0065C77.3709 59.8561 77.4571 60.7224 77.4498 61.5905V66.9805H80.7398V78.4605H58.5498V62.0105C58.5498 60.1905 58.2815 58.8138 57.7448 57.8805C57.2794 57.0714 56.542 56.4538 55.6638 56.1375C55.5197 56.0821 55.3732 56.0331 55.2248 55.9905C54.8265 55.8797 54.4217 55.7936 54.0128 55.7325C53.0215 55.5778 51.8038 55.5005 50.3598 55.5005V66.9805H54.9798V78.4605H27.2598ZM50.3598 46.9605H54.1398C55.0858 46.9605 55.8661 46.7842 56.4808 46.4315C56.742 46.2824 56.9793 46.095 57.1848 45.8755C57.6841 45.3422 57.9991 44.5862 58.1298 43.6075C58.178 43.2338 58.2014 42.8573 58.1998 42.4805V39.9605C58.202 39.5479 58.1736 39.1358 58.1148 38.7275C57.9761 37.8008 57.6661 37.0802 57.1848 36.5655C56.8005 36.1624 56.3175 35.8666 55.7838 35.7075C55.3065 35.5562 54.7585 35.4805 54.1398 35.4805H50.3598V46.9605Z" fill="black" stroke="black" stroke-width="0.944882" stroke-linecap="round"/>
<path fill-rule="evenodd" clip-rule="evenodd" d="M82.3605 77.0801V69.1601H91.1605C91.1605 69.9868 91.3472 70.5868 91.7205 70.9601C91.8625 71.0975 92.03 71.2059 92.2135 71.2791C92.5275 71.4105 92.9295 71.4881 93.4195 71.5121C93.5331 71.5176 93.6468 71.5202 93.7605 71.5201C93.9638 71.5208 94.167 71.5118 94.3695 71.4931C94.8855 71.4438 95.2758 71.3261 95.5405 71.1401C95.6852 71.0393 95.8066 70.9087 95.8966 70.7571C95.9867 70.6055 96.0432 70.4364 96.0625 70.2611C96.0746 70.1746 96.0806 70.0874 96.0805 70.0001C96.0814 69.8086 96.0428 69.619 95.9673 69.443C95.8918 69.267 95.7809 69.1084 95.6415 68.9771C95.6153 68.9507 95.5882 68.925 95.5605 68.9001C95.4499 68.8043 95.3318 68.7174 95.2075 68.6401C94.8562 68.4168 94.3738 68.1901 93.7605 67.9601L90.3205 66.7601C88.4412 66.0495 86.8978 65.2581 85.6905 64.3861C85.0458 63.9294 84.4582 63.3969 83.9405 62.8001C83.1934 61.9073 82.6571 60.8577 82.3715 59.7291C82.1702 58.9751 82.0508 58.1541 82.0135 57.2661C82.0047 57.0576 82.0004 56.8489 82.0005 56.6401C81.9912 55.6464 82.1115 54.6557 82.3585 53.6931C82.7803 52.0182 83.7444 50.5299 85.1005 49.4601C85.8812 48.8603 86.7542 48.3915 87.6855 48.0721C89.3548 47.4708 91.4505 47.1225 93.9725 47.0271C94.4616 47.0089 94.951 46.9999 95.4405 47.0001C96.9753 46.9958 98.5082 47.1065 100.027 47.3311C100.682 47.4296 101.334 47.5527 101.981 47.7001C102.695 47.8614 103.402 48.057 104.099 48.2861C105.194 48.6508 106.135 49.0755 106.921 49.5601V56.7201H98.9205C98.9268 56.4211 98.8741 56.1238 98.7655 55.8451C98.4935 55.1871 97.8638 54.8178 96.8765 54.7371C96.7315 54.7255 96.586 54.7199 96.4405 54.7201C96.2547 54.7197 96.0689 54.726 95.8835 54.7391C95.5182 54.7658 95.2195 54.8211 94.9875 54.9051C94.9017 54.9354 94.819 54.974 94.7405 55.0201C94.6306 55.0861 94.5348 55.1732 94.4586 55.2764C94.3824 55.3795 94.3273 55.4966 94.2965 55.6211C94.2638 55.7391 94.2455 55.8698 94.2415 56.0131C94.2408 56.0354 94.2405 56.0578 94.2405 56.0801C94.2405 56.5335 94.4338 56.8935 94.8205 57.1601C94.9438 57.2438 95.072 57.32 95.2045 57.3881C95.4938 57.5395 95.8578 57.6945 96.2965 57.8531C96.4372 57.904 96.5785 57.953 96.7205 58.0001L100.201 59.2001C102.137 59.8581 103.713 60.6505 104.93 61.5771C105.462 61.977 105.948 62.434 106.381 62.9401C107.205 63.9319 107.777 65.1089 108.048 66.3701C108.235 67.2205 108.327 68.0893 108.321 68.9601C108.331 70.0169 108.201 71.0704 107.935 72.0931C107.469 73.9093 106.399 75.5128 104.901 76.6401C102.621 78.3735 99.2805 79.2401 94.8805 79.2401C93.1069 79.2445 91.335 79.1306 89.5765 78.8991C88.9216 78.8115 88.2693 78.7051 87.6205 78.5801C85.3405 78.1401 83.5872 77.6401 82.3605 77.0801Z" fill="#F74C00" stroke="black" stroke-width="0.944882" stroke-linecap="round"/>
<mask id="mask0_8_239" style="mask-type:luminance" maskUnits="userSpaceOnUse" x="108" y="48" width="93" height="32">
<path d="M200.68 48H108V79.12H200.68V48Z" fill="white"/>
</mask>
<g mask="url(#mask0_8_239)">
<path fill-rule="evenodd" clip-rule="evenodd" d="M200.68 48V54.56H198.68V72.56H200.68V79.12H185.56V72.56H187.48V58.56L180.68 79.12H174.76L167.76 58.76V72.56H169.68V79.12H156.56V72.56H158.56V54.56H156.56V48H174.88L179.04 60.48L183.04 48H200.68ZM125.12 54.56V48H138.48V54.56H136.88L129.72 79.12H116.76L109.6 54.56H108V48H123.36V54.56H121.28L124.04 67.96H124.44L127.2 54.56H125.12ZM154.96 79.12H139.76V72.56H141.76V54.56H139.76V48H154.96V54.56H152.96V72.56H154.96V79.12Z" fill="black" stroke="black" stroke-width="0.944882" stroke-linecap="round"/>
</g>
</svg>
