<svg xmlns="http://www.w3.org/2000/svg" xmlns:xlink="http://www.w3.org/1999/xlink" xmlns:lucid="lucid" width="186" height="80"><g transform="translate(-488 -265)" lucid:page-tab-id="0_0"><path d="M460 279.1a6 6 0 0 1 6-6h228a6 6 0 0 1 6 6v61.8a6 6 0 0 1-6 6H466a6 6 0 0 1-6-6z" stroke="#000" stroke-opacity="0" stroke-width="2" fill="#fff" fill-opacity="0"/><use xlink:href="#a" transform="matrix(1,0,0,1,465,278.0888888888889) translate(35.5555555555556 46.22222222222221)"/><defs><path fill="#fc9432" d="M748-47c43 42 9 118-50 118-19 0-35-7-49-21C540-60 461-196 362-315c-40-2-72-8-99-27L226-17c-2 58-89 85-124 35C91 2 84-14 87-33c29-252 58-504 87-757-41 2-84 22-120 0-50-31-28-117 29-126 279-45 720-90 716 236-2 195-110 311-268 354 71 95 131 195 217 279zm-89-621c0-157-196-147-350-139 4 9 5 20 4 33l-35 301c49-34 109-10 144 21 144-4 237-76 237-216" id="b"/><path fill="#fc9432" d="M648-711c38-125-135-123-240-111-101 11-159 66-174 164-11 72 65 90 122 112 131 50 289 71 360 178 18 27 27 60 27 99C743-43 588 79 347 67 195 60 90-24 33-131c-42-80 85-141 126-60 44 88 160 140 294 112 78-16 130-68 144-147 20-114-115-129-204-161-105-38-220-64-275-148-17-25-26-57-26-95 0-237 166-342 421-335 154 4 281 66 281 222 0 67-26 147-107 122-30-9-52-48-39-90" id="c"/><path fill="#fc9432" d="M94-935c88 2 71 98 78 189 16 204 25 435 65 613 13 57 42 34 66-3 138-215 207-522 289-790 5-57 104-74 128-20 18 41 11 45-3 96-74 270-165 561-301 774C371-6 321 66 231 75c-66-9-92-81-113-147-70-223-84-513-93-792-1-37 32-72 69-71" id="d"/><path fill="#fc9432" d="M88-583c0-59 89-86 124-37 11 16 17 33 15 52L165-17c0 58-90 86-124 37C30 4 24-13 26-32zm82-155c-72-4-79-123-30-160s113 0 113 64c0 54-27 99-83 96" id="e"/><path fill="#fc9432" d="M543-460c48-83 92-174 208-186 182 19 174 259 166 453-3 69-17 127-23 185-6 57-97 80-126 28-28-51 2-109 7-170 8-95 29-220 9-318-10-54-61-44-89-1C617-349 571-166 540-3c-11 60-120 47-134 3-2-129 43-311 12-456-10-47-55-68-88-28C233-368 197-175 164 0 153 60 47 53 30 8c-3-8-5-17-4-27l61-573c0-58 89-84 124-36 16 21 18 44 12 72 37-45 80-90 152-90 111 0 144 92 168 186" id="f"/><g id="a"><use transform="matrix(0.044444444444444425,0,0,0.044444444444444425,0,0)" xlink:href="#b"/><use transform="matrix(0.044444444444444425,0,0,0.044444444444444425,36.66666666666665,0)" xlink:href="#c"/><use transform="matrix(0.044444444444444425,0,0,0.044444444444444425,73.11111111111109,0)" xlink:href="#d"/><use transform="matrix(0.044444444444444425,0,0,0.044444444444444425,104.4444444444444,0)" xlink:href="#e"/><use transform="matrix(0.044444444444444425,0,0,0.044444444444444425,116.84444444444439,0)" xlink:href="#f"/></g></defs></g></svg>