<svg xmlns="http://www.w3.org/2000/svg" xmlns:xlink="http://www.w3.org/1999/xlink" xmlns:lucid="lucid" width="282" height="115.82"><g transform="translate(-439 -252.0888888888889)" lucid:page-tab-id="0_0"><path d="M460 279.1a6 6 0 0 1 6-6h228a6 6 0 0 1 6 6v61.8a6 6 0 0 1-6 6H466a6 6 0 0 1-6-6z" stroke="#000" stroke-opacity="0" stroke-width="2" fill="#fff" fill-opacity="0"/><use xlink:href="#a" transform="matrix(1,0,0,1,465,278.0888888888889) translate(49.733072916666686 43.546874999999986)"/><defs><path fill="#f74c00" d="M182-1374L55-6c81 69 190 80 327 32l47-473 117-12L897 50c153 47 263 4 328-127L871-534c214-53 339-164 370-334 62-334 15-544-256-588-132-22-364-17-696 14zm743 264c30 64 28 135-5 214S732-768 457-749l43-413c253-30 395-12 425 52" id="b"/><path fill="#f74c00" d="M120-121c-43-151-18-269 76-352 171 101 296 163 373 186 144-1 227-37 237-108 8-56-37-118-132-164L417-684c-161-85-250-206-250-361 0-172 146-339 281-381 70-21 152-31 248-25 176 11 330 61 463 150 5 126-34 236-118 329-162-121-292-178-389-170-91-11-140 22-145 98-3 43 58 106 193 168 148 68 263 132 336 211s106 176 98 289c-11 153-84 268-214 353-86 56-206 88-364 73-152-14-297-76-436-171" id="c"/><path fill="#f74c00" d="M1329-1453L759 16c-119 54-233 55-341 3L55-1453c124-21 249-21 375 0L621-401l326-1052c123-20 251-20 382 0" id="d"/><path fill="#f74c00" d="M55 18c94 49 209 54 345 15l118-1471c-117-34-227-39-328-15" id="e"/><path fill="#f74c00" d="M156-1444L55 40l323 3 53-719L595-2c39 44 84 53 135 28l306-696-41 710 325-3 91-1483c-89-23-182-23-278 2L722-602l-233-840c-139-38-250-39-333-2" id="f"/><g id="a"><use transform="matrix(0.02170138888888888,0,0,0.02170138888888888,0,0)" xlink:href="#b"/><use transform="matrix(0.02170138888888888,0,0,0.02170138888888888,29.29687499999999,0)" xlink:href="#c"/><use transform="matrix(0.02170138888888888,0,0,0.02170138888888888,55.92447916666665,0)" xlink:href="#d"/><use transform="matrix(0.02170138888888888,0,0,0.02170138888888888,86.0677083333333,0)" xlink:href="#e"/><use transform="matrix(0.02170138888888888,0,0,0.02170138888888888,98.61111111111107,0)" xlink:href="#f"/></g></defs></g></svg>