<svg xmlns="http://www.w3.org/2000/svg" xmlns:xlink="http://www.w3.org/1999/xlink" xmlns:lucid="lucid" width="154" height="75"><g transform="translate(-502 -491)" lucid:page-tab-id="0_0"><path d="M460 426a6 6 0 0 1 6-6h228a6 6 0 0 1 6 6v51.33a6 6 0 0 1-6 6H466a6 6 0 0 1-6-6z" stroke="#000" stroke-opacity="0" stroke-width="2" fill="#fff" fill-opacity="0"/><use xlink:href="#a" transform="matrix(1,0,0,1,465,425) translate(64.38151041666667 38.921875)"/><path d="M460 500.76a6 6 0 0 1 6-6h228a6 6 0 0 1 6 6v51.33a6 6 0 0 1-6 6H466a6 6 0 0 1-6-6z" stroke="#000" stroke-opacity="0" stroke-width="2" fill="#fff" fill-opacity="0"/><use xlink:href="#b" transform="matrix(1,0,0,1,465,499.7555555555556) translate(58.511111111111106 42.041666666666664)"/><defs><path fill="#3a414a" d="M120-121c-43-151-18-269 76-352 171 101 296 163 373 186 144-1 227-37 237-108 8-56-37-118-132-164L417-684c-161-85-250-206-250-361 0-172 146-339 281-381 70-21 152-31 248-25 176 11 330 61 463 150 5 126-34 236-118 329-162-121-292-178-389-170-91-11-140 22-145 98-3 43 58 106 193 168 148 68 263 132 336 211s106 176 98 289c-11 153-84 268-214 353-86 56-206 88-364 73-152-14-297-76-436-171" id="c"/><path fill="#3a414a" d="M1329-1453L759 16c-119 54-233 55-341 3L55-1453c124-21 249-21 375 0L621-401l326-1052c123-20 251-20 382 0" id="d"/><path fill="#3a414a" d="M55 18c94 49 209 54 345 15l118-1471c-117-34-227-39-328-15" id="e"/><path fill="#3a414a" d="M156-1444L55 40l323 3 53-719L595-2c39 44 84 53 135 28l306-696-41 710 325-3 91-1483c-89-23-182-23-278 2L722-602l-233-840c-139-38-250-39-333-2" id="f"/><g id="a"><use transform="matrix(0.021701388888888888,0,0,0.021701388888888888,0,0)" xlink:href="#c"/><use transform="matrix(0.021701388888888888,0,0,0.021701388888888888,26.627604166666664,0)" xlink:href="#d"/><use transform="matrix(0.021701388888888888,0,0,0.021701388888888888,56.77083333333333,0)" xlink:href="#e"/><use transform="matrix(0.021701388888888888,0,0,0.021701388888888888,69.3142361111111,0)" xlink:href="#f"/></g><path d="M31 8c-2-22-2-202-2-254 68-15 137-18 157-15 18 68 59 104 91 104 29 0 55-16 55-46 0-57-64-76-124-108-89-48-175-98-175-241 0-99 82-180 216-180 58 0 94 22 111 40l7-48s104-4 153 17c5 2-12 195-12 227 0 15-156 14-156 10-5-58-39-80-70-80-18 0-55 9-55 49 0 36 75 58 149 102 89 52 164 105 164 228 0 113-98 198-198 198-103 0-140-39-155-56-2 22-4 62-5 62-5-2-151-9-151-9" id="g"/><path d="M288 0C283-3 93-536 93-536s-53-8-61-8-2-157 0-157c0 0 306 2 310 3s14 157 14 157-48 7-54 7 76 228 76 228 83-233 80-233-48 2-51 2-15-159-13-162 310-2 311 1 0 161-1 164-63 3-67 3S463-5 456 0 293 3 288 0" id="h"/><path d="M51-7c-11-16-6-124-2-128s72-3 72-3l-14-414s-58 2-63-3 4-146 4-146l329-5 7 142-90 17 13 404c5 0 87 0 87 7s7 132 2 134S62 9 51-7" id="i"/><path d="M38-3s-13-140-5-144 70-1 70-4-2-378-3-385-51 1-61-5-13-158-8-164 232-4 237-1 108 171 113 180c5-9 120-174 126-179s247-2 247 0 2 145 2 153-72 10-73 10-1 388 3 395 77 2 77 9S774 9 771 8 435 11 435-2s-3-136 2-137 67 0 67-3l2-279s-70 105-72 105-89 10-92 7-72-112-73-112 7 263 7 269 71 8 71 11 9 143 6 143S38-3 38-3" id="j"/><g id="b"><use transform="matrix(0.044444444444444446,0,0,0.044444444444444446,0,0)" xlink:href="#g"/><use transform="matrix(0.044444444444444446,0,0,0.044444444444444446,25.2,0)" xlink:href="#h"/><use transform="matrix(0.044444444444444446,0,0,0.044444444444444446,57.955555555555556,0)" xlink:href="#i"/><use transform="matrix(0.044444444444444446,0,0,0.044444444444444446,77.46666666666667,0)" xlink:href="#j"/></g></defs></g></svg>